<?xml version="1.0" encoding="utf-8"?>
<!-- Generator: Adobe Illustrator 15.0.0, SVG Export Plug-In . SVG Version: 6.00 Build 0)  -->
<!DOCTYPE svg PUBLIC "-//W3C//DTD SVG 1.1//EN" "http://www.w3.org/Graphics/SVG/1.1/DTD/svg11.dtd">
<svg version="1.1" id="Layer_1" xmlns="http://www.w3.org/2000/svg" xmlns:xlink="http://www.w3.org/1999/xlink" x="0px" y="0px"
	 width="16px" height="16px" viewBox="0 0 16 16" enable-background="new 0 0 16 16" xml:space="preserve">
<rect width="16" height="16"/>
<g display="none">
	<rect x="70.488" display="inline" width="16" height="7.5"/>
	<rect x="70.488" y="8.5" display="inline" width="16" height="7.5"/>
</g>
<g display="none">
	<rect x="91.54" display="inline" width="7.5" height="7.5"/>
	<rect x="100.04" display="inline" width="7.5" height="7.5"/>
	<rect x="91.54" y="8.5" display="inline" width="16" height="7.5"/>
</g>
<g display="none">
	<rect x="146.392" y="13" display="inline" width="3.25" height="3"/>
	<rect x="133.642" y="13" display="inline" width="3.25" height="3"/>
	<rect x="137.892" y="13" display="inline" width="3.25" height="3"/>
	<rect x="142.142" y="13" display="inline" width="3.25" height="3"/>
	<rect x="133.642" display="inline" width="16" height="12"/>
</g>
<g display="none">
	<g display="inline">
		<rect x="112.591" width="7.5" height="7.5"/>
		<rect x="121.091" width="7.5" height="7.5"/>
	</g>
	<g display="inline">
		<rect x="112.591" y="8.5" width="7.5" height="7.5"/>
		<rect x="121.091" y="8.5" width="7.5" height="7.5"/>
	</g>
</g>
<g display="none">
	<rect x="154.693" y="11.34" display="inline" width="4.66" height="4.66"/>
	<rect x="166.033" y="11.34" display="inline" width="4.66" height="4.66"/>
	<rect x="166.033" display="inline" width="4.66" height="4.66"/>
	<rect x="166.033" y="5.67" display="inline" width="4.66" height="4.66"/>
	<rect x="160.363" y="11.34" display="inline" width="4.66" height="4.66"/>
	<rect x="154.693" display="inline" width="10.33" height="10.33"/>
</g>
<g display="none">
	<rect x="188.494" y="12.75" display="inline" width="3.25" height="3.25"/>
	<rect x="184.244" y="12.75" display="inline" width="3.25" height="3.25"/>
	<rect x="184.244" y="8.5" display="inline" width="3.25" height="3.25"/>
	<rect x="188.494" y="8.5" display="inline" width="3.25" height="3.25"/>
	<rect x="175.744" y="8.5" display="inline" width="7.5" height="7.5"/>
	<rect x="175.744" display="inline" width="7.5" height="7.5"/>
	<rect x="184.244" display="inline" width="7.5" height="7.5"/>
</g>
<g display="none">
	<rect x="196.796" y="12.75" display="inline" width="3.25" height="3.25"/>
	<rect x="201.046" y="12.75" display="inline" width="3.25" height="3.25"/>
	<rect x="205.296" y="12.75" display="inline" width="3.25" height="3.25"/>
	<rect x="209.546" y="12.75" display="inline" width="3.25" height="3.25"/>
	<rect x="209.546" y="8.5" display="inline" width="3.25" height="3.25"/>
	<rect x="209.546" y="4.25" display="inline" width="3.25" height="3.25"/>
	<rect x="209.546" display="inline" width="3.25" height="3.25"/>
	<rect x="196.796" display="inline" width="11.75" height="11.75"/>
</g>
<g display="none">
	<rect x="238.897" y="12.75" display="inline" width="3.25" height="3.25"/>
	<rect x="243.147" y="12.75" display="inline" width="3.25" height="3.25"/>
	<rect x="247.397" y="12.75" display="inline" width="3.25" height="3.25"/>
	<rect x="251.647" y="12.75" display="inline" width="3.25" height="3.25"/>
	<rect x="238.897" y="8.5" display="inline" width="3.25" height="3.25"/>
	<rect x="243.147" y="8.5" display="inline" width="3.25" height="3.25"/>
	<rect x="247.397" y="8.5" display="inline" width="3.25" height="3.25"/>
	<rect x="251.647" y="8.5" display="inline" width="3.25" height="3.25"/>
	<rect x="238.897" display="inline" width="7.5" height="7.5"/>
	<rect x="247.397" display="inline" width="7.5" height="7.5"/>
</g>
<g display="none">
	<rect x="264.199" y="4.25" display="inline" width="7.5" height="7.5"/>
	<rect x="259.949" y="12.75" display="inline" width="3.25" height="3.25"/>
	<rect x="264.199" y="12.75" display="inline" width="3.25" height="3.25"/>
	<rect x="268.449" y="12.75" display="inline" width="3.25" height="3.25"/>
	<rect x="272.699" y="12.75" display="inline" width="3.25" height="3.25"/>
	<rect x="272.699" display="inline" width="3.25" height="3.25"/>
	<rect x="272.699" y="4.25" display="inline" width="3.25" height="3.25"/>
	<rect x="272.699" y="8.5" display="inline" width="3.25" height="3.25"/>
	<rect x="259.949" display="inline" width="3.25" height="3.25"/>
	<rect x="264.199" display="inline" width="3.25" height="3.25"/>
	<rect x="268.449" display="inline" width="3.25" height="3.25"/>
	<rect x="259.949" y="4.25" display="inline" width="3.25" height="3.25"/>
	<rect x="259.949" y="8.5" display="inline" width="3.25" height="3.25"/>
</g>
<g display="none">
	<rect x="281" y="12.75" display="inline" width="3.25" height="3.25"/>
	<rect x="285.25" y="12.75" display="inline" width="3.25" height="3.25"/>
	<rect x="289.5" y="12.75" display="inline" width="3.25" height="3.25"/>
	<rect x="293.75" y="12.75" display="inline" width="3.25" height="3.25"/>
	<rect x="293.75" display="inline" width="3.25" height="3.25"/>
	<rect x="293.75" y="4.25" display="inline" width="3.25" height="3.25"/>
	<rect x="293.75" y="8.5" display="inline" width="3.25" height="3.25"/>
	<rect x="281" display="inline" width="3.25" height="3.25"/>
	<rect x="285.25" display="inline" width="3.25" height="3.25"/>
	<rect x="285.25" y="4.25" display="inline" width="3.25" height="3.25"/>
	<rect x="285.25" y="8.5" display="inline" width="3.25" height="3.25"/>
	<rect x="289.5" display="inline" width="3.25" height="3.25"/>
	<rect x="289.5" y="4.25" display="inline" width="3.25" height="3.25"/>
	<rect x="289.5" y="8.5" display="inline" width="3.25" height="3.25"/>
	<rect x="281" y="4.25" display="inline" width="3.25" height="3.25"/>
	<rect x="281" y="8.5" display="inline" width="3.25" height="3.25"/>
</g>
<g display="none">
	<rect x="223.956" display="inline" width="0" height="0"/>
	<rect x="217.847" y="11.34" display="inline" width="4.66" height="4.66"/>
	<rect x="217.847" display="inline" width="4.66" height="4.66"/>
	<rect x="223.517" display="inline" width="4.66" height="4.66"/>
	<rect x="229.187" display="inline" width="4.66" height="4.66"/>
	<rect x="229.187" y="11.34" display="inline" width="4.66" height="4.66"/>
	<rect x="223.517" y="11.34" display="inline" width="4.66" height="4.66"/>
	<rect x="217.847" y="5.669" display="inline" width="4.66" height="4.661"/>
	<rect x="223.517" y="5.67" display="inline" width="4.66" height="4.66"/>
	<rect x="229.187" y="5.67" display="inline" width="4.66" height="4.66"/>
</g>
</svg>
