<?xml version="1.0" encoding="utf-8"?>
<!-- Generator: Adobe Illustrator 15.0.0, SVG Export Plug-In . SVG Version: 6.00 Build 0)  -->
<!DOCTYPE svg PUBLIC "-//W3C//DTD SVG 1.1//EN" "http://www.w3.org/Graphics/SVG/1.1/DTD/svg11.dtd">
<svg version="1.1" id="Layer_1" xmlns="http://www.w3.org/2000/svg" xmlns:xlink="http://www.w3.org/1999/xlink" x="0px" y="0px"
	 width="16px" height="16px" viewBox="0 0 16 16" enable-background="new 0 0 16 16" xml:space="preserve">
<rect display="none" width="16" height="16"/>
<g display="none">
	<rect display="inline" width="16" height="7.5"/>
	<rect y="8.5" display="inline" width="16" height="7.5"/>
</g>
<g>
	<rect width="7.5" height="7.5"/>
	<rect x="8.5" width="7.5" height="7.5"/>
	<rect y="8.5" width="16" height="7.5"/>
</g>
<g display="none">
	<rect x="12.75" y="13" display="inline" width="3.25" height="3"/>
	<rect y="13" display="inline" width="3.25" height="3"/>
	<rect x="4.25" y="13" display="inline" width="3.25" height="3"/>
	<rect x="8.5" y="13" display="inline" width="3.25" height="3"/>
	<rect display="inline" width="16" height="12"/>
</g>
<g display="none">
	<g display="inline">
		<rect width="7.5" height="7.5"/>
		<rect x="8.5" width="7.5" height="7.5"/>
	</g>
	<g display="inline">
		<rect y="8.5" width="7.5" height="7.5"/>
		<rect x="8.5" y="8.5" width="7.5" height="7.5"/>
	</g>
</g>
<g display="none">
	<rect y="11.34" display="inline" width="4.66" height="4.66"/>
	<rect x="11.34" y="11.34" display="inline" width="4.66" height="4.66"/>
	<rect x="11.34" display="inline" width="4.66" height="4.66"/>
	<rect x="11.34" y="5.67" display="inline" width="4.66" height="4.66"/>
	<rect x="5.67" y="11.34" display="inline" width="4.66" height="4.66"/>
	<rect display="inline" width="10.33" height="10.33"/>
</g>
<g display="none">
	<rect x="12.75" y="12.75" display="inline" width="3.25" height="3.25"/>
	<rect x="8.5" y="12.75" display="inline" width="3.25" height="3.25"/>
	<rect x="8.5" y="8.5" display="inline" width="3.25" height="3.25"/>
	<rect x="12.75" y="8.5" display="inline" width="3.25" height="3.25"/>
	<rect y="8.5" display="inline" width="7.5" height="7.5"/>
	<rect display="inline" width="7.5" height="7.5"/>
	<rect x="8.5" display="inline" width="7.5" height="7.5"/>
</g>
<g display="none">
	<rect y="12.75" display="inline" width="3.25" height="3.25"/>
	<rect x="4.25" y="12.75" display="inline" width="3.25" height="3.25"/>
	<rect x="8.5" y="12.75" display="inline" width="3.25" height="3.25"/>
	<rect x="12.75" y="12.75" display="inline" width="3.25" height="3.25"/>
	<rect x="12.75" y="8.5" display="inline" width="3.25" height="3.25"/>
	<rect x="12.75" y="4.25" display="inline" width="3.25" height="3.25"/>
	<rect x="12.75" display="inline" width="3.25" height="3.25"/>
	<rect display="inline" width="11.75" height="11.75"/>
</g>
<g display="none">
	<rect y="12.75" display="inline" width="3.25" height="3.25"/>
	<rect x="4.25" y="12.75" display="inline" width="3.25" height="3.25"/>
	<rect x="8.5" y="12.75" display="inline" width="3.25" height="3.25"/>
	<rect x="12.75" y="12.75" display="inline" width="3.25" height="3.25"/>
	<rect y="8.5" display="inline" width="3.25" height="3.25"/>
	<rect x="4.25" y="8.5" display="inline" width="3.25" height="3.25"/>
	<rect x="8.5" y="8.5" display="inline" width="3.25" height="3.25"/>
	<rect x="12.75" y="8.5" display="inline" width="3.25" height="3.25"/>
	<rect display="inline" width="7.5" height="7.5"/>
	<rect x="8.5" display="inline" width="7.5" height="7.5"/>
</g>
<g display="none">
	<rect x="4.25" y="4.25" display="inline" width="7.5" height="7.5"/>
	<rect y="12.75" display="inline" width="3.25" height="3.25"/>
	<rect x="4.25" y="12.75" display="inline" width="3.25" height="3.25"/>
	<rect x="8.5" y="12.75" display="inline" width="3.25" height="3.25"/>
	<rect x="12.75" y="12.75" display="inline" width="3.25" height="3.25"/>
	<rect x="12.75" display="inline" width="3.25" height="3.25"/>
	<rect x="12.75" y="4.25" display="inline" width="3.25" height="3.25"/>
	<rect x="12.75" y="8.5" display="inline" width="3.25" height="3.25"/>
	<rect display="inline" width="3.25" height="3.25"/>
	<rect x="4.25" display="inline" width="3.25" height="3.25"/>
	<rect x="8.5" display="inline" width="3.25" height="3.25"/>
	<rect y="4.25" display="inline" width="3.25" height="3.25"/>
	<rect y="8.5" display="inline" width="3.25" height="3.25"/>
</g>
<g display="none">
	<rect y="12.75" display="inline" width="3.25" height="3.25"/>
	<rect x="4.25" y="12.75" display="inline" width="3.25" height="3.25"/>
	<rect x="8.5" y="12.75" display="inline" width="3.25" height="3.25"/>
	<rect x="12.75" y="12.75" display="inline" width="3.25" height="3.25"/>
	<rect x="12.75" display="inline" width="3.25" height="3.25"/>
	<rect x="12.75" y="4.25" display="inline" width="3.25" height="3.25"/>
	<rect x="12.75" y="8.5" display="inline" width="3.25" height="3.25"/>
	<rect display="inline" width="3.25" height="3.25"/>
	<rect x="4.25" display="inline" width="3.25" height="3.25"/>
	<rect x="4.25" y="4.25" display="inline" width="3.25" height="3.25"/>
	<rect x="4.25" y="8.5" display="inline" width="3.25" height="3.25"/>
	<rect x="8.5" display="inline" width="3.25" height="3.25"/>
	<rect x="8.5" y="4.25" display="inline" width="3.25" height="3.25"/>
	<rect x="8.5" y="8.5" display="inline" width="3.25" height="3.25"/>
	<rect y="4.25" display="inline" width="3.25" height="3.25"/>
	<rect y="8.5" display="inline" width="3.25" height="3.25"/>
</g>
<g display="none">
	<rect x="6.109" display="inline" width="0" height="0"/>
	<rect y="11.34" display="inline" width="4.66" height="4.66"/>
	<rect display="inline" width="4.66" height="4.66"/>
	<rect x="5.67" display="inline" width="4.66" height="4.66"/>
	<rect x="11.34" display="inline" width="4.66" height="4.66"/>
	<rect x="11.34" y="11.34" display="inline" width="4.66" height="4.66"/>
	<rect x="5.67" y="11.34" display="inline" width="4.66" height="4.66"/>
	<rect y="5.669" display="inline" width="4.66" height="4.661"/>
	<rect x="5.67" y="5.67" display="inline" width="4.66" height="4.66"/>
	<rect x="11.34" y="5.67" display="inline" width="4.66" height="4.66"/>
</g>
</svg>
